<svg xmlns="http://www.w3.org/2000/svg" viewBox="0 0 850 230" width="100%" height="230">
<style>
  .bg { fill: #080E21; stroke: #00F0FF; stroke-width: 1.5; rx: 10px; }
  .header-bg { fill: #040711; stroke: #10223D; stroke-width: 1; }
  .title { font-family: 'JetBrains Mono', monospace, sans-serif; font-weight: bold; fill: #00F0FF; font-size: 15px; }
  .subtitle { font-family: 'JetBrains Mono', monospace, sans-serif; font-weight: bold; fill: #FF007F; font-size: 13px; }
  .text { font-family: -apple-system, BlinkMacSystemFont, 'Segoe UI', Roboto, sans-serif; fill: #F0F6FF; font-size: 12.5px; }
  .muted { font-family: -apple-system, BlinkMacSystemFont, 'Segoe UI', Roboto, sans-serif; fill: #5A7099; font-size: 12px; }
  .chip-bg { fill: #10223D; rx: 4px; }
  .chip-text { font-family: 'JetBrains Mono', monospace, sans-serif; font-weight: bold; fill: #00F0FF; font-size: 10px; }
  .btn-bg { fill: #040711; stroke: #00F0FF; stroke-width: 1; rx: 5px; }
  .btn-text { font-family: 'JetBrains Mono', monospace, sans-serif; font-weight: bold; fill: #00F0FF; font-size: 11px; }
  .pink-btn-bg { fill: #FF007F; rx: 5px; }
  .pink-btn-text { font-family: 'JetBrains Mono', monospace, sans-serif; font-weight: bold; fill: #FFFFFF; font-size: 11px; }
</style>

  <!-- Card Frame -->
  <rect x="2" y="2" width="846" height="226" class="bg" />
  
  <!-- Terminal Header Bar -->
  <rect x="2" y="2" width="846" height="32" rx="10" class="header-bg" />
  <rect x="2" y="20" width="846" height="14" class="header-bg" />
  <circle cx="20" cy="17" r="5" fill="#FF5F56" />
  <circle cx="36" cy="17" r="5" fill="#FFBD2E" />
  <circle cx="52" cy="17" r="5" fill="#27C93F" />
  <text x="425" y="21" text-anchor="middle" fill="#5A7099" font-family="monospace" font-size="11">tech_stack.config --live</text>
  
  <!-- Divider -->
  <line x1="500" y1="34" x2="500" y2="226" stroke="#10223D" stroke-width="1.5" />
  
  <!-- Left Column: Core Technologies -->
  <text x="24" y="55" class="title">🛠️ CORE TECHNOLOGIES &amp; LIBRARIES</text>
  <rect x="24" y="70" width="64" height="24" class="chip-bg" stroke="#00F0FF" stroke-width="0.5"/><text x="56.0" y="86" text-anchor="middle" class="chip-text">Python</text>
<rect x="98" y="70" width="40" height="24" class="chip-bg" stroke="#00F0FF" stroke-width="0.5"/><text x="118.0" y="86" text-anchor="middle" class="chip-text">SQL</text>
<rect x="148" y="70" width="48" height="24" class="chip-bg" stroke="#00F0FF" stroke-width="0.5"/><text x="172.0" y="86" text-anchor="middle" class="chip-text">Java</text>
<rect x="206" y="70" width="96" height="24" class="chip-bg" stroke="#00F0FF" stroke-width="0.5"/><text x="254.0" y="86" text-anchor="middle" class="chip-text">JavaScript</text>
<rect x="312" y="70" width="56" height="24" class="chip-bg" stroke="#00F0FF" stroke-width="0.5"/><text x="340.0" y="86" text-anchor="middle" class="chip-text">React</text>
<rect x="378" y="70" width="72" height="24" class="chip-bg" stroke="#00F0FF" stroke-width="0.5"/><text x="414.0" y="86" text-anchor="middle" class="chip-text">FastAPI</text>
<rect x="24" y="102" width="56" height="24" class="chip-bg" stroke="#00F0FF" stroke-width="0.5"/><text x="52.0" y="118" text-anchor="middle" class="chip-text">Flask</text>
<rect x="90" y="102" width="88" height="24" class="chip-bg" stroke="#00F0FF" stroke-width="0.5"/><text x="134.0" y="118" text-anchor="middle" class="chip-text">Streamlit</text>
<rect x="188" y="102" width="40" height="24" class="chip-bg" stroke="#00F0FF" stroke-width="0.5"/><text x="208.0" y="118" text-anchor="middle" class="chip-text">AWS</text>
<rect x="238" y="102" width="64" height="24" class="chip-bg" stroke="#00F0FF" stroke-width="0.5"/><text x="270.0" y="118" text-anchor="middle" class="chip-text">Docker</text>
<rect x="312" y="102" width="40" height="24" class="chip-bg" stroke="#00F0FF" stroke-width="0.5"/><text x="332.0" y="118" text-anchor="middle" class="chip-text">Git</text>
<rect x="362" y="102" width="56" height="24" class="chip-bg" stroke="#00F0FF" stroke-width="0.5"/><text x="390.0" y="118" text-anchor="middle" class="chip-text">Linux</text>
<rect x="24" y="134" width="56" height="24" class="chip-bg" stroke="#00F0FF" stroke-width="0.5"/><text x="52.0" y="150" text-anchor="middle" class="chip-text">MySQL</text>
<rect x="90" y="134" width="96" height="24" class="chip-bg" stroke="#00F0FF" stroke-width="0.5"/><text x="138.0" y="150" text-anchor="middle" class="chip-text">PostgreSQL</text>
<rect x="196" y="134" width="72" height="24" class="chip-bg" stroke="#00F0FF" stroke-width="0.5"/><text x="232.0" y="150" text-anchor="middle" class="chip-text">PyTorch</text>
<rect x="278" y="134" width="96" height="24" class="chip-bg" stroke="#00F0FF" stroke-width="0.5"/><text x="326.0" y="150" text-anchor="middle" class="chip-text">TensorFlow</text>
<rect x="24" y="166" width="112" height="24" class="chip-bg" stroke="#00F0FF" stroke-width="0.5"/><text x="80.0" y="182" text-anchor="middle" class="chip-text">Scikit-Learn</text>
  
  <!-- Right Column: Currently Learning -->
  <text x="520" y="55" class="title">🧠 CURRENTLY LEARNING</text>
  <text x="520" y="72" class="text"><tspan fill="#00F0FF" font-family="monospace">▸</tspan> Cloud Computing Architecture</text>
<text x="520" y="98" class="text"><tspan fill="#00F0FF" font-family="monospace">▸</tspan> Advanced Data Engineering &amp; Event Streaming</text>
<text x="520" y="124" class="text"><tspan fill="#00F0FF" font-family="monospace">▸</tspan> Machine Learning Systems</text>
<text x="520" y="150" class="text"><tspan fill="#00F0FF" font-family="monospace">▸</tspan> LLMs &amp; Agentic DAG Orchestration</text>
<text x="520" y="176" class="text"><tspan fill="#00F0FF" font-family="monospace">▸</tspan> Distributed System Design</text>
</svg>
